<svg width="1172" height="276" viewBox="0 0 1172 276" fill="none" xmlns="http://www.w3.org/2000/svg">
<path d="M43.7656 206H0.875V0.40625H118.719V36.125H43.7656V89.1406H113.516V124.719H43.7656V206ZM266.938 206L261.172 185.891H258.922C254.328 193.203 247.812 198.875 239.375 202.906C230.938 206.844 221.328 208.812 210.547 208.812C192.078 208.812 178.156 203.891 168.781 194.047C159.406 184.109 154.719 169.859 154.719 151.297V48.7812H197.609V140.609C197.609 151.953 199.625 160.484 203.656 166.203C207.688 171.828 214.109 174.641 222.922 174.641C234.922 174.641 243.594 170.656 248.938 162.688C254.281 154.625 256.953 141.312 256.953 122.75V48.7812H299.844V206H266.938ZM454.25 206H330.078V180.688L402.922 81.5469H334.438V48.7812H451.719V76.625L380.844 173.234H454.25V206ZM596.844 206L591.078 185.891H588.828C584.234 193.203 577.719 198.875 569.281 202.906C560.844 206.844 551.234 208.812 540.453 208.812C521.984 208.812 508.062 203.891 498.688 194.047C489.312 184.109 484.625 169.859 484.625 151.297V48.7812H527.516V140.609C527.516 151.953 529.531 160.484 533.562 166.203C537.594 171.828 544.016 174.641 552.828 174.641C564.828 174.641 573.5 170.656 578.844 162.688C584.188 154.625 586.859 141.312 586.859 122.75V48.7812H629.75V206H596.844Z" fill="#004763"/>
<path d="M721.719 97.1562H736.062C749.469 97.1562 759.5 94.5312 766.156 89.2812C772.812 83.9375 776.141 76.2031 776.141 66.0781C776.141 55.8594 773.328 48.3125 767.703 43.4375C762.172 38.5625 753.453 36.125 741.547 36.125H721.719V97.1562ZM820.156 64.5312C820.156 86.6562 813.219 103.578 799.344 115.297C785.562 127.016 765.922 132.875 740.422 132.875H721.719V206H678.125V0.40625H743.797C768.734 0.40625 787.672 5.79687 800.609 16.5781C813.641 27.2656 820.156 43.25 820.156 64.5312ZM955.438 206L947.141 184.625H946.016C938.797 193.719 931.344 200.047 923.656 203.609C916.062 207.078 906.125 208.812 893.844 208.812C878.75 208.812 866.844 204.5 858.125 195.875C849.5 187.25 845.188 174.969 845.188 159.031C845.188 142.344 851 130.062 862.625 122.188C874.344 114.219 891.969 109.812 915.5 108.969L942.781 108.125V101.234C942.781 85.2969 934.625 77.3281 918.312 77.3281C905.75 77.3281 890.984 81.125 874.016 88.7188L859.812 59.75C877.906 50.2812 897.969 45.5469 920 45.5469C941.094 45.5469 957.266 50.1406 968.516 59.3281C979.766 68.5156 985.391 82.4844 985.391 101.234V206H955.438ZM942.781 133.156L926.188 133.719C913.719 134.094 904.438 136.344 898.344 140.469C892.25 144.594 889.203 150.875 889.203 159.312C889.203 171.406 896.141 177.453 910.016 177.453C919.953 177.453 927.875 174.594 933.781 168.875C939.781 163.156 942.781 155.562 942.781 146.094V133.156ZM1007.19 48.7812H1054.16L1083.83 137.234C1086.36 144.922 1088.09 154.016 1089.03 164.516H1089.88C1090.91 154.859 1092.92 145.766 1095.92 137.234L1125.03 48.7812H1171.02L1104.5 226.109C1098.41 242.516 1089.69 254.797 1078.34 262.953C1067.09 271.109 1053.92 275.188 1038.83 275.188C1031.42 275.188 1024.16 274.391 1017.03 272.797V238.766C1022.19 239.984 1027.81 240.594 1033.91 240.594C1041.5 240.594 1048.11 238.25 1053.73 233.562C1059.45 228.969 1063.91 221.984 1067.09 212.609L1069.62 204.875L1007.19 48.7812Z" fill="#DB3F70"/>
</svg>
